<?xml version="1.0" standalone="no"?>
<!DOCTYPE svg PUBLIC "-//W3C//DTD SVG 20010904//EN"
 "http://www.w3.org/TR/2001/REC-SVG-20010904/DTD/svg10.dtd">
<svg version="1.0" xmlns="http://www.w3.org/2000/svg"
 width="995.000000pt" height="971.000000pt" viewBox="0 0 995.000000 971.000000"
 preserveAspectRatio="xMidYMid meet">
<metadata>
Created by potrace 1.16, written by Peter Selinger 2001-2019
</metadata>
<g transform="translate(0.000000,971.000000) scale(0.100000,-0.100000)"
fill="#000000" stroke="none">
<path d="M4867 7200 c-74 -13 -186 -49 -242 -77 -148 -75 -229 -157 -440 -443
-576 -782 -635 -864 -622 -876 14 -14 575 -374 582 -374 2 0 26 23 52 51 109
117 310 240 468 288 219 67 451 67 670 0 158 -48 359 -171 468 -288 26 -28 50
-51 52 -51 3 0 101 61 217 136 117 75 250 159 295 188 45 28 81 56 79 61 -10
29 -780 1068 -836 1128 -158 170 -346 255 -580 262 -63 2 -137 0 -163 -5z"/>
<path d="M4832 5340 c-227 -61 -406 -242 -468 -471 -23 -87 -23 -244 0 -329
30 -109 92 -217 171 -295 81 -80 151 -125 257 -163 66 -24 87 -27 208 -27 121
0 142 3 208 27 106 38 176 83 257 163 79 78 141 186 171 295 23 86 23 242 0
330 -57 212 -229 395 -436 462 -96 30 -271 35 -368 8z"/>
<path d="M2895 4923 c-384 -523 -419 -590 -432 -820 -13 -237 66 -456 225
-625 112 -118 221 -186 379 -235 l88 -28 768 -3 767 -3 -2 212 -3 212 -55 19
c-363 123 -645 449 -725 838 -18 88 -25 294 -12 360 l7 35 -342 219 c-188 120
-347 220 -353 222 -6 3 -146 -179 -310 -403z"/>
<path d="M6448 5107 c-302 -193 -347 -225 -341 -242 14 -44 6 -290 -11 -375
-83 -393 -360 -712 -731 -840 l-50 -17 -3 -212 -2 -212 767 3 768 3 88 28
c158 49 267 117 379 235 159 169 238 388 225 625 -13 230 -46 293 -426 812
-166 226 -304 411 -309 412 -4 2 -163 -97 -354 -220z"/>
<path d="M1303 2705 l-34 -34 3 -200 3 -201 28 -27 27 -28 235 -3 235 -3 0 60
0 61 -207 2 -208 3 -2 134 c-1 73 1 140 4 147 4 11 46 14 209 14 l204 0 0 55
0 55 -231 0 -231 0 -35 -35z"/>
<path d="M1974 2573 l124 -168 -2 -97 -1 -98 58 0 57 0 0 98 0 99 120 162 c66
89 120 164 120 166 0 3 -30 5 -67 5 l-68 -1 -78 -99 c-43 -55 -82 -100 -85
-100 -4 1 -42 46 -85 100 l-79 100 -69 0 -69 0 124 -167z"/>
<path d="M2480 2475 l0 -265 220 0 c243 0 266 5 295 60 18 35 21 171 4 203 -7
11 -11 56 -10 98 1 54 -3 87 -13 108 -31 59 -39 61 -278 61 l-218 0 0 -265z
m390 110 l0 -45 -140 0 -140 0 0 45 0 45 140 0 140 0 0 -45z m20 -210 l0 -45
-150 0 -150 0 0 45 0 45 150 0 150 0 0 -45z"/>
<path d="M3090 2475 l0 -265 245 0 245 0 0 60 0 60 -185 0 -185 0 0 45 0 45
150 0 150 0 0 55 0 55 -150 0 -150 0 0 50 0 50 185 0 185 0 0 55 0 55 -245 0
-245 0 0 -265z"/>
<path d="M3650 2475 l0 -265 60 0 60 0 0 85 0 85 59 0 c33 0 66 3 74 6 10 3
39 -25 88 -85 l74 -90 63 0 c80 -1 81 12 7 101 -30 36 -55 69 -55 72 0 3 9 6
20 6 11 0 34 13 52 29 32 28 33 33 37 117 4 102 -9 155 -46 183 -24 20 -39 21
-259 21 l-234 0 0 -265z m420 90 l0 -65 -150 0 -150 0 0 65 0 65 150 0 150 0
0 -65z"/>
<path d="M4310 2475 l0 -265 60 0 60 0 0 265 0 265 -60 0 -60 0 0 -265z"/>
<path d="M4520 2475 l0 -265 60 0 60 0 2 173 3 174 145 -173 145 -174 58 0
c55 0 57 1 58 28 0 15 2 134 3 265 l3 237 -58 0 -59 0 -2 -174 -3 -175 -145
175 -145 174 -62 0 -63 0 0 -265z"/>
<path d="M5140 2475 l0 -265 231 0 231 0 34 34 34 34 0 192 c0 208 -6 236 -57
259 -15 7 -108 11 -248 11 l-225 0 0 -265z m414 124 c8 -40 8 -232 0 -253 -5
-14 -28 -16 -155 -16 l-149 0 0 143 c0 79 3 147 7 150 3 4 70 7 148 7 l143 0
6 -31z"/>
<path d="M5750 2525 c0 -322 -6 -315 269 -315 275 0 265 -12 269 303 l3 227
-60 0 -61 0 0 -205 0 -205 -150 0 -150 0 0 205 0 205 -60 0 -60 0 0 -215z"/>
<path d="M6407 2720 c-34 -27 -45 -71 -40 -151 6 -95 10 -108 46 -129 28 -18
51 -20 200 -20 l167 0 0 -45 0 -45 -150 0 c-143 0 -150 1 -150 20 0 18 -7 20
-55 20 l-55 0 0 -47 c1 -51 10 -68 50 -96 34 -24 375 -25 420 -2 48 25 62 65
58 162 -3 81 -4 86 -36 114 l-32 29 -175 0 -175 0 0 50 0 50 150 0 150 0 0
-25 c0 -24 3 -25 60 -25 l60 0 0 35 c0 20 -7 49 -15 65 -30 57 -41 60 -256 60
-183 0 -198 -1 -222 -20z"/>
<path d="M6950 2685 l0 -55 105 0 105 0 0 -210 0 -210 60 0 60 0 0 210 0 209
101 3 101 3 2 53 2 52 -268 0 -268 0 0 -55z"/>
<path d="M7540 2475 l0 -265 55 0 55 0 0 85 0 85 55 1 c30 1 65 2 77 2 17 1
43 -22 98 -86 l74 -87 58 0 c53 0 58 2 58 21 0 12 -25 50 -55 84 -30 35 -55
66 -55 69 0 3 10 6 23 6 26 0 60 26 76 57 6 12 11 67 11 123 l0 102 -34 34
-34 34 -231 0 -231 0 0 -265z m415 90 l0 -60 -150 0 -150 0 -3 49 c-5 80 -11
77 155 74 l148 -3 0 -60z"/>
<path d="M8130 2735 c0 -3 54 -78 120 -167 l120 -162 0 -98 0 -98 55 0 55 0 0
98 0 97 125 168 125 167 -70 0 -69 0 -81 -100 c-45 -55 -83 -100 -85 -100 -2
0 -40 45 -85 100 l-81 100 -64 0 c-36 0 -65 -2 -65 -5z"/>
</g>
</svg>
